<svg xmlns="http://www.w3.org/2000/svg" xmlns:xlink="http://www.w3.org/1999/xlink" width="383" height="120" viewBox="0 0 383 120"><defs><path id="ddova" d="M728.7 173.34V63.06h2.57v110.28z"/><path id="ddovb" d="M559 173.24V62.81h29.58v110.43z"/><path id="ddovc" d="M614.37 175.996c-22.586 0-36.21-10.214-36.21-27.332v-12.559h25.886v9.521c0 4.282 3.298 7.312 8.953 7.312 5.633 0 8.254-2.48 8.254-7.18 0-9.108-6.882-12.557-22.451-22.358-13.896-8.693-19.817-21.114-19.817-33.682 0-15.05 12.249-29.678 36.206-29.678 19.415 0 32.905 12.284 32.905 27.333v11.178H622.21v-9.112c0-3.858-3.166-6.343-7.02-6.343-3.856 0-7.847 2.198-7.847 6.486 0 11.041 3.856 12.83 19.554 21.394 14.45 7.868 22.711 21.678 22.711 35.345 0 15.18-12.528 29.675-35.238 29.675z"/><path id="ddovd" d="M687.18 173.24L674.38 135l-5.098 12.702v25.538H639.68V62.81h29.602v44.858L685.11 62.81h29.878l-20.376 50.661 23.553 59.769z"/><path id="ddove" d="M578.18 148.76c0 8.888 3.731 15.85 10.422 20.56V136.2H578.18zm.82-58.943c0 8.838 3.018 17.588 9.602 25.042V68.98c-6.344 5.58-9.601 13.14-9.601 20.837z"/><path id="ddovf" d="M648.126 87.305c0-7.16-3.131-13.65-8.426-18.535v29.72h8.426zM639.7 121.13v46.278c6.46-5.586 9.938-13.262 9.938-21.17 0-8.87-3.547-17.782-9.938-25.108z"/><path id="ddovg" d="M747.54 89.54V63.21h2.92v26.33z"/><path id="ddovh" d="M762.396 76.934c-.381-.875-1.221-1.683-2.226-1.683-.973 0-2.026.773-2.026 1.823 0 1.5 1.881 2.058 3.801 2.856 1.92.804 3.798 1.96 3.798 4.715 0 3.107-2.5 5.346-5.544 5.346-2.751 0-4.904-1.572-5.779-4.15l2.474-1.057c.696 1.54 1.496 2.623 3.347 2.623 1.49 0 2.646-1.014 2.646-2.514 0-3.664-7.388-2.415-7.388-7.58 0-2.758 2.23-4.643 4.883-4.643 1.872 0 3.62 1.327 4.347 3.044z"/><path id="ddovi" d="M784.623 89.538h-2.785v-2.276h-.074c-1.43 1.822-3.334 2.73-5.64 2.73-4.807 0-7.844-4.081-7.844-8.624 0-4.68 2.969-8.698 7.883-8.698 2.222 0 4.243 1.052 5.6 2.795h.075v-2.337h2.785zm-13.48-8.384c0 3.211 1.884 6.251 5.373 6.251 3.586 0 5.47-2.895 5.47-6.211 0-3.281-2.049-5.941-5.514-5.941-3.233 0-5.328 2.83-5.328 5.901z"/><path id="ddovj" d="M804.705 89.538h-2.79v-2.276h-.057c-1.432 1.822-3.354 2.73-5.65 2.73-4.805 0-7.838-4.081-7.838-8.624 0-4.68 2.966-8.698 7.878-8.698 2.223 0 4.248 1.052 5.61 2.795h.056v-2.337h2.79zm-13.477-8.384c0 3.211 1.887 6.251 5.36 6.251 3.582 0 5.463-2.895 5.463-6.211 0-3.281-2.053-5.941-5.496-5.941-3.224 0-5.327 2.83-5.327 5.901z"/><path id="ddovk" d="M822.01 78.016h-.069c-1.288-1.646-2.888-2.765-5.083-2.765-3.377 0-5.776 2.794-5.776 6.08 0 3.249 2.227 6.076 5.637 6.076 2.334 0 3.97-1.047 5.33-2.827h.073v3.74c-1.607 1.073-3.242 1.671-5.193 1.671-4.944 0-8.709-3.699-8.709-8.66 0-4.892 3.937-8.661 8.74-8.661 1.776 0 3.59.597 5.05 1.647z"/><path id="ddovl" d="M833.063 76.934c-.396-.875-1.224-1.683-2.235-1.683-.975 0-2.021.773-2.021 1.823 0 1.5 1.881 2.058 3.79 2.856 1.923.804 3.802 1.96 3.802 4.715 0 3.107-2.506 5.346-5.539 5.346-2.747 0-4.918-1.572-5.78-4.15l2.463-1.057c.714 1.54 1.512 2.623 3.352 2.623 1.501 0 2.65-1.014 2.65-2.514 0-3.664-7.386-2.415-7.386-7.58 0-2.758 2.234-4.643 4.875-4.643 1.888 0 3.626 1.327 4.35 3.044z"/><path id="ddovm" d="M838.87 81.368c0-4.824 3.8-8.698 8.601-8.698 4.808 0 8.605 3.874 8.605 8.698a8.568 8.568 0 0 1-8.605 8.623c-4.77 0-8.601-3.805-8.601-8.623zm2.784-.037c0 3.352 2.37 6.074 5.817 6.074 3.45 0 5.819-2.722 5.819-6.074 0-3.314-2.369-6.078-5.819-6.078-3.446 0-5.817 2.764-5.817 6.078z"/><path id="ddovn" d="M862.692 75.11h.067c1.145-1.562 2.647-2.44 4.665-2.44 4.533 0 5.568 3.282 5.568 7.121v9.747h-2.776V80.28c0-2.658-.212-5.03-3.453-5.03-3.827 0-4.071 3.565-4.071 6.496v7.79H859.9V73.129h2.792z"/><path id="ddovo" d="M883.474 86.608l-3.932 8.948-1.882-.774 3.243-9.072z"/><path id="ddovp" d="M759.37 110.235c-1.037-1.813-2.298-2.856-4.525-2.856-2.337 0-4.354 1.676-4.354 4.085 0 2.269 2.332 3.314 4.107 4.12l1.742.767c3.414 1.497 6.304 3.213 6.304 7.403 0 4.61-3.681 8.136-8.251 8.136-4.214 0-7.344-2.729-8.183-6.814l2.853-.798c.385 2.683 2.442 4.883 5.26 4.883 2.82 0 5.393-2.158 5.393-5.129 0-3.071-2.403-4.117-4.842-5.237l-1.599-.693c-3.058-1.403-5.704-2.976-5.704-6.75 0-4.083 3.45-6.702 7.342-6.702 2.923 0 5.403 1.505 6.792 4.094z"/><path id="ddovq" d="M779.073 119.924h-.067c-1.288-1.642-2.891-2.758-5.071-2.758-3.39 0-5.788 2.795-5.788 6.074 0 3.247 2.227 6.08 5.643 6.08 2.325 0 3.961-1.055 5.324-2.833h.071v3.738c-1.606 1.082-3.24 1.675-5.191 1.675-4.943 0-8.714-3.699-8.714-8.66 0-4.894 3.946-8.66 8.744-8.66 1.782 0 3.586.6 5.049 1.641z"/><path id="ddovr" d="M786.286 102.63v14.312l.075.077c1.147-1.579 2.64-2.449 4.667-2.449 4.53 0 5.57 3.278 5.57 7.129v9.736h-2.784v-9.246c0-2.655-.21-5.033-3.45-5.033-3.82 0-4.078 3.563-4.078 6.495v7.784H783.5V102.63z"/><path id="ddovs" d="M805.789 108.85a1.99 1.99 0 0 1-1.987 1.993 1.981 1.981 0 0 1-1.982-1.992c0-1.081.9-1.991 1.982-1.991 1.075 0 1.987.91 1.987 1.99zm-.58 22.593h-2.795v-16.41h2.794z"/><path id="ddovt" d="M809.55 123.275c0-4.82 3.788-8.695 8.601-8.695 4.806 0 8.61 3.876 8.61 8.695a8.571 8.571 0 0 1-8.61 8.625c-4.77 0-8.601-3.806-8.601-8.625zm2.784-.035c0 3.351 2.379 6.081 5.822 6.081 3.448 0 5.822-2.73 5.822-6.081 0-3.317-2.374-6.076-5.822-6.076-3.443 0-5.822 2.76-5.822 6.076z"/><path id="ddovu" d="M836.05 126.132l5.092-12.362 5.114 12.362 4.878-11.104h3.163l-8.113 17.56-5.042-12.216-5.05 12.217-8.042-17.561h3.165z"/><path id="ddovv" d="M860.95 108.85a1.98 1.98 0 0 1-3.96 0c0-1.08.9-1.99 1.98-1.99 1.078 0 1.98.91 1.98 1.99zm-.597 22.593h-2.78v-16.41h2.78z"/><path id="ddovw" d="M869.098 131.441h-2.788v-13.83h-1.7v-2.58h1.7v-5.901h2.788v5.901h2.929v2.58h-2.93z"/><path id="ddovx" d="M889.15 128.856v2.584h-16.92l11.804-13.83h-9.616v-2.58h15.234l-11.777 13.826z"/><path id="ddovy" d="M897.79 128.51l-3.931 8.94-1.879-.765 3.23-9.075z"/><path id="ddovz" d="M762.226 169.646c-2.327 2.091-5.122 4.154-8.39 4.154-4.008 0-7.666-3-7.666-7.189 0-4.404 3.163-6.5 6.444-8.66l.31-.216c-1.185-1.637-2.607-3.415-2.607-5.583 0-3.318 2.463-5.582 5.736-5.582 2.961 0 5.581 2.087 5.581 5.161 0 3.148-2.369 4.854-4.63 6.561l5.531 7.094 2.963-3.455 2.125 1.745-3.35 3.903 4.458 5.767h-3.685zm-8.844-8.906c-1.996 1.365-4.353 2.966-4.353 5.655 0 2.483 2.154 4.747 4.633 4.747 2.639 0 4.932-2.056 6.816-3.699l-5.843-7.544zm2.182-4.747c1.501-1.15 3.283-2.17 3.283-4.262 0-1.609-1.332-2.685-2.863-2.685a2.86 2.86 0 0 0-2.88 2.891c0 1.33.865 2.314 1.601 3.355l.622.874z"/><path id="ddovA" d="M794.53 147.01h3.935l-12.327 12.26 12.74 14.07h-4.032l-10.763-12.083-.736.737v11.347h-2.927V147.01h2.927v11.276z"/><path id="ddovB" d="M800.25 165.173c0-4.822 3.79-8.693 8.601-8.693 4.802 0 8.599 3.871 8.599 8.693 0 4.817-3.828 8.627-8.599 8.627-4.777 0-8.601-3.81-8.601-8.627zm2.784-.036c0 3.361 2.364 6.088 5.822 6.088 3.448 0 5.82-2.727 5.82-6.088 0-3.306-2.372-6.074-5.82-6.074-3.458 0-5.822 2.768-5.822 6.074z"/><path id="ddovC" d="M823.931 158.716h.061c.979-1.291 1.82-2.236 3.626-2.236.934 0 1.7.319 2.503.768l-1.32 2.554c-.56-.387-.945-.74-1.67-.74-3.067 0-3.2 3.951-3.2 6.07v8.214h-2.801V156.94h2.801z"/><path id="ddovD" d="M839.564 160.74c-.377-.87-1.222-1.677-2.227-1.677-.979 0-2.02.77-2.02 1.816 0 1.507 1.874 2.061 3.795 2.864 1.912.801 3.794 1.952 3.794 4.717 0 3.1-2.512 5.34-5.534 5.34-2.757 0-4.908-1.571-5.782-4.154l2.477-1.053c.694 1.545 1.49 2.622 3.34 2.622 1.493 0 2.64-1.01 2.64-2.512 0-3.667-7.376-2.412-7.376-7.584 0-2.752 2.227-4.639 4.871-4.639 1.879 0 3.627 1.328 4.36 3.038z"/><path id="ddovE" d="M845.38 165.173c0-4.822 3.788-8.693 8.597-8.693 4.801 0 8.6 3.871 8.6 8.693 0 4.817-3.826 8.627-8.6 8.627-4.78 0-8.597-3.81-8.597-8.627zm2.777-.036c0 3.361 2.36 6.088 5.82 6.088 3.45 0 5.82-2.727 5.82-6.088 0-3.306-2.37-6.074-5.82-6.074-3.46 0-5.82 2.768-5.82 6.074z"/><path id="ddovF" d="M869.199 158.924h.072c1.143-1.563 2.64-2.444 4.661-2.444 4.526 0 5.564 3.28 5.564 7.12v9.746h-2.78v-9.255c0-2.656-.208-5.028-3.443-5.028-3.826 0-4.074 3.561-4.074 6.495v7.788h-2.789V156.94h2.789z"/><path id="ddovG" d="M889.978 170.404l-3.936 8.936-1.882-.768 3.238-9.072z"/><path id="ddovH" d="M904.471 170.619h7.24v2.722H901.55V147.01h2.921z"/><path id="ddovI" d="M917.524 170.619h7.251v2.722H914.6V147.01h2.924z"/><path id="ddovJ" d="M930.58 173.34h-2.92v-26.33h4.313c2.265 0 4.599.078 6.511 1.4 1.952 1.361 2.958 3.67 2.958 6.007 0 2.13-.862 4.294-2.503 5.658-1.78 1.464-4.043 1.748-6.232 1.748h-2.127zm.002-14.233h1.946c3.246 0 5.987-.978 5.987-4.759 0-4.294-3.438-4.615-6.859-4.615h-1.074z"/></defs><g><g transform="translate(-559 -60)"><g><use fill="#fff" xlink:href="#ddova"/></g><g><use fill="#041e39" xlink:href="#ddovb"/></g><g><use fill="#b1a26e" xlink:href="#ddovc"/></g><g><use fill="#801d34" xlink:href="#ddovd"/></g></g><g transform="translate(-559 -60)"><use fill="#566762" xlink:href="#ddove"/></g><g transform="translate(-559 -60)"><use fill="#79643b" xlink:href="#ddovf"/></g><g transform="translate(-559 -60)"><g><use fill="#fff" xlink:href="#ddovg"/></g><g><use fill="#fff" xlink:href="#ddovh"/></g><g><use fill="#fff" xlink:href="#ddovi"/></g><g><use fill="#fff" xlink:href="#ddovj"/></g><g><use fill="#fff" xlink:href="#ddovk"/></g><g><use fill="#fff" xlink:href="#ddovl"/></g><g><use fill="#fff" xlink:href="#ddovm"/></g><g><use fill="#fff" xlink:href="#ddovn"/></g><g><use fill="#fff" xlink:href="#ddovo"/></g><g><use fill="#fff" xlink:href="#ddovp"/></g><g><use fill="#fff" xlink:href="#ddovq"/></g><g><use fill="#fff" xlink:href="#ddovr"/></g><g><use fill="#fff" xlink:href="#ddovs"/></g><g><use fill="#fff" xlink:href="#ddovt"/></g><g><use fill="#fff" xlink:href="#ddovu"/></g><g><use fill="#fff" xlink:href="#ddovv"/></g><g><use fill="#fff" xlink:href="#ddovw"/></g><g><use fill="#fff" xlink:href="#ddovx"/></g><g><use fill="#fff" xlink:href="#ddovy"/></g><g><use fill="#fff" xlink:href="#ddovz"/></g><g><use fill="#fff" xlink:href="#ddovA"/></g><g><use fill="#fff" xlink:href="#ddovB"/></g><g><use fill="#fff" xlink:href="#ddovC"/></g><g><use fill="#fff" xlink:href="#ddovD"/></g><g><use fill="#fff" xlink:href="#ddovE"/></g><g><use fill="#fff" xlink:href="#ddovF"/></g><g><use fill="#fff" xlink:href="#ddovG"/></g><g><use fill="#fff" xlink:href="#ddovH"/></g><g><use fill="#fff" xlink:href="#ddovI"/></g><g><use fill="#fff" xlink:href="#ddovJ"/></g></g></g></svg>