<?xml version="1.0" encoding="UTF-8"?>
<svg width="71px" height="80px" viewBox="0 0 71 80" version="1.1" xmlns="http://www.w3.org/2000/svg" xmlns:xlink="http://www.w3.org/1999/xlink">
    <!-- Generator: Sketch 52.4 (67378) - http://www.bohemiancoding.com/sketch -->
    <title>medical-malpractice</title>
    <desc>Created with Sketch.</desc>
    <g id="Web-2-Copy" stroke="none" stroke-width="1" fill="none" fill-rule="evenodd">
        <g id="home" transform="translate(-435.000000, -2238.000000)" fill="#B1A26E" fill-rule="nonzero">
            <g id="practices" transform="translate(3.000000, 2238.000000)">
                <g id="content" transform="translate(38.000000, 0.000000)">
                    <g id="list" transform="translate(13.000000, 0.000000)">
                        <g id="practice" transform="translate(291.000000, 0.000000)">
                            <g id="medical-malpractice" transform="translate(90.000000, 0.000000)">
                                <path d="M70.801636,75.9035937 L67.2749912,55.184375 C66.8949232,52.9520313 65.316886,51.15875 63.1562127,50.5046875 L53.6440811,47.6245313 C53.4471184,45.2910938 52.4937566,43.0896875 50.9071557,41.3471875 C49.6380307,39.9534375 48.0417763,38.9385938 46.2821908,38.3785938 C46.583318,38.0432813 46.8624912,37.7090625 47.1186206,37.3821875 C49.3806557,34.4951563 50.5917039,31.3145313 50.8999934,29.1440625 L51.6338158,29.1440625 C53.5424079,29.1440625 55.0952215,27.5859375 55.0952215,25.6704688 L55.0952215,23.8898438 C55.0952215,22.6115625 54.378682,21.4532813 53.3010702,20.8521875 L53.3010702,16.5703125 C53.3010702,15.9232812 52.7783794,15.39875 52.1336184,15.39875 C51.4888575,15.39875 50.9663224,15.923125 50.9663224,16.5703125 L50.9663224,21.3771875 C50.5116732,21.4564063 49.9692083,21.5932813 49.4142873,21.8278125 C49.3574561,21.8485937 49.302182,21.8726562 49.2498662,21.9015625 C49.1245263,21.9589062 48.9990307,22.019375 48.8740022,22.0875 L48.8740022,12.6465625 C48.8740022,10.0382813 46.7595724,7.91640625 44.160443,7.91640625 L40.9381952,7.91640625 C39.8267961,7.91640625 38.7410877,8.305 37.8806798,9.0109375 L37.5644496,9.2703125 C36.983682,9.746875 36.2506382,10.009375 35.5003114,10.009375 C34.7499846,10.009375 34.0167851,9.746875 33.4360175,9.2703125 L33.119943,9.0109375 C32.2595351,8.30515625 31.1738268,7.91640625 30.0624276,7.91640625 L26.8398684,7.91640625 C24.240739,7.91640625 22.1263092,10.0382813 22.1263092,12.6465625 L22.1263092,22.0875 C22.0012807,22.019375 21.8757851,21.9589063 21.7504452,21.9015625 C21.6981294,21.8726563 21.643011,21.8485938 21.5861798,21.8278125 C21.0312588,21.5932813 20.4886382,21.4564063 20.0341447,21.3771875 L20.0341447,9.22265625 C20.0341447,5.42921875 23.1095658,2.34296875 26.889693,2.34296875 L44.1104627,2.34296875 C47.8907456,2.34296875 50.966011,5.42921875 50.966011,9.22265625 L50.966011,11.0642187 C50.966011,11.71125 51.4887018,12.2357812 52.133307,12.2357812 C52.7779123,12.2357812 53.3007588,11.7114062 53.3007588,11.0642187 L53.3007588,9.22265625 C53.3007588,4.13734375 49.177932,0 44.1104627,0 L26.889693,0 C21.822068,0 17.6993969,4.13734375 17.6993969,9.22265625 L17.6993969,20.8523438 C16.6217851,21.4534375 15.9052456,22.6115625 15.9052456,23.89 L15.9052456,25.670625 C15.9052456,27.5860938 17.4580592,29.1442188 19.3666513,29.1442188 L20.1004737,29.1442188 C20.4086075,31.3146875 21.6198114,34.4953125 23.8818465,37.3823438 C24.1376645,37.7089063 24.416682,38.0428125 24.7174978,38.3778125 C20.6723662,39.6671875 17.7224408,43.316875 17.356386,47.6245313 L7.84394298,50.5046875 C5.68326974,51.15875 4.10507675,52.9520313 3.72516447,55.184375 L2.29301974,63.5982812 C2.18449561,64.2360937 2.61174123,64.84125 3.24716009,64.9501562 C3.88242325,65.059375 4.48576754,64.6304688 4.59444737,63.9926562 L6.02659211,55.57875 C6.25640789,54.228125 7.21117105,53.1434375 8.51828728,52.7478125 L17.3162149,50.0839063 L17.3162149,52.40125 C15.2995658,52.77375 13.5835768,54.1639063 12.8768465,56.09 C12.6892259,56.60125 12.5726053,57.1365625 12.5302544,57.6809375 L11.6799671,68.6332813 C11.615818,69.4582812 11.9002851,70.2798438 12.4600329,70.886875 C13.0197807,71.4940625 13.8137039,71.8425 14.6381447,71.8425 L16.0936447,71.8425 C16.7384057,71.8425 17.2610965,71.318125 17.2610965,70.6709375 C17.2610965,70.02375 16.7384057,69.4995313 16.0936447,69.4995313 L14.6381447,69.4995313 C14.4623575,69.4995313 14.2932654,69.4254688 14.1738421,69.2957813 C14.0545746,69.1664063 13.9940066,68.9914063 14.0077083,68.815625 L14.8579956,57.863125 C14.8836864,57.5332813 14.9542193,57.2090625 15.0678816,56.8995313 C15.5595877,55.5596875 16.8874123,54.6523438 18.3723399,54.641875 L18.5646316,54.6404688 C18.5736623,54.6403125 18.5825373,54.6403125 18.5914123,54.6403125 C20.0346118,54.6403125 21.3121447,55.4615625 21.8510285,56.7382813 C22.0022149,57.09625 22.0940789,57.4746875 22.1242851,57.863125 L22.9748838,68.8157813 C22.9884298,68.9914063 22.9278618,69.1664063 22.8085943,69.2959375 C22.6893268,69.4253125 22.5200789,69.4995313 22.3442917,69.4995313 L20.8887917,69.4995313 C20.2440307,69.4995313 19.7213399,70.0239063 19.7213399,70.6709375 C19.7213399,71.3179688 20.2440307,71.8425 20.8887917,71.8425 L22.3442917,71.8425 C23.1687325,71.8425 23.9628114,71.4942188 24.5224035,70.886875 C25.082307,70.2795313 25.3667741,69.458125 25.302625,68.6334375 L24.4520263,57.6809375 C24.4022018,57.04 24.2503925,56.4151563 24.0008026,55.8240625 C23.2317917,54.0026563 21.5874254,52.73625 19.650807,52.3935938 L19.650807,49.3770313 L23.663864,48.161875 C24.0289846,48.9335938 24.7525307,50.60125 26.1857654,54.1960938 C27.6302105,57.8232813 29.4256075,62.4725 31.1475132,66.9921875 C31.1598136,67.0301563 31.1739825,67.0671875 31.189864,67.1034375 C32.338943,70.1207813 33.4536118,73.0760938 34.4069737,75.6254688 C34.5779342,76.0826563 35.013432,76.3854688 35.5,76.3854688 C35.986568,76.3854688 36.4220658,76.0826563 36.5930263,75.6254688 C37.5462325,73.0760938 38.6609013,70.1207813 39.810136,67.1034375 C39.8261732,67.0671875 39.8401864,67.03 39.8524868,66.9921875 C41.5731469,62.4751563 43.3676096,57.8289063 44.811432,54.2028125 C46.2465351,50.6032813 46.9707039,48.9342188 47.3359803,48.161875 L51.3490373,49.3770313 L51.3490373,56.2965625 C48.5685154,56.8385938 46.4623377,59.2995313 46.4623377,62.2460938 C46.4623377,65.5884375 49.1720154,68.3078125 52.5027873,68.3078125 C55.8335592,68.3078125 58.5432368,65.5885938 58.5432368,62.2460938 C58.5432368,59.3092188 56.4509167,56.8542188 53.6837851,56.3015625 L53.6837851,50.0840625 L62.4818684,52.7479688 C63.7889846,53.1435938 64.7435921,54.2282813 64.9735636,55.5789063 L68.5002083,76.298125 C68.5587522,76.6417188 68.4676667,76.9776563 68.2436118,77.2440625 C68.0197127,77.5103125 67.7050395,77.6571875 67.3576689,77.6571875 L3.64233114,77.6571875 C3.29496053,77.6571875 2.98044298,77.5104688 2.75638816,77.2440625 C2.53248904,76.9776563 2.44124781,76.641875 2.49979167,76.298125 L3.66366228,69.4603125 C3.7721864,68.8225 3.34494079,68.2173438 2.70952193,68.1084375 C2.07425877,67.9990625 1.47091447,68.4282813 1.36223465,69.0659375 L0.198364035,75.90375 C0.0247565789,76.924375 0.306732456,77.9635938 0.971890351,78.755 C1.63735965,79.54625 2.61065132,80 3.64233114,80 L67.3576689,80 C68.3893487,80 69.3627961,79.54625 70.0281096,78.7548438 C70.6932675,77.9634375 70.9752434,76.9242187 70.801636,75.9035937 Z M50.9800241,23.7639062 C51.6020526,23.6082812 52.1013882,23.6110937 52.1069934,23.61125 C52.3081601,23.6139062 52.5037215,23.5667187 52.6774846,23.4753125 C52.729489,23.6051562 52.7601623,23.7446875 52.7601623,23.89 L52.7601623,25.670625 C52.7601623,26.2940625 52.2547544,26.80125 51.6335044,26.80125 L50.9800241,26.80125 L50.9800241,23.7639062 Z M20.0199759,26.80125 L19.3664956,26.80125 C18.7452456,26.80125 18.2398377,26.2940625 18.2398377,25.670625 L18.2398377,23.89 C18.2398377,23.7446875 18.2706667,23.6051563 18.3225154,23.4754688 C18.4961228,23.566875 18.6916842,23.6140625 18.8930066,23.61125 C18.9018816,23.6128125 19.3998158,23.61 20.0199759,23.7645313 L20.0199759,26.80125 Z M22.3547237,28.1148437 L22.3547237,25.0370312 C22.7084781,25.1434375 23.0953969,25.1289062 23.4525768,24.979375 C24.0652632,24.7228125 24.461057,24.1270312 24.461057,23.46125 L24.461057,12.6465625 C24.461057,11.3303125 25.5282368,10.259375 26.8398684,10.259375 L30.0621162,10.259375 C30.6363443,10.259375 31.1973377,10.4601562 31.6418662,10.8248437 L31.9579408,11.0842187 C32.9545877,11.9020312 34.2125022,12.3521875 35.5,12.3521875 C36.7874978,12.3521875 38.0454123,11.901875 39.0420592,11.0842187 L39.3581338,10.8248437 C39.8025066,10.4601562 40.3636557,10.259375 40.9378838,10.259375 L44.1601316,10.259375 C45.4717632,10.259375 46.538943,11.3303125 46.538943,12.6465625 L46.538943,23.4614062 C46.538943,24.1270312 46.9347368,24.7229687 47.5474232,24.9795312 C47.7520154,25.0651562 47.966261,25.1067187 48.1786382,25.1067187 C48.3369868,25.1067187 48.4940899,25.0834375 48.6452763,25.038125 L48.6452763,28.1148437 C48.6452763,29.8253125 47.4669254,33.146875 45.2830526,35.9340625 C44.5596623,36.8573437 43.6298114,37.8492187 42.4849364,38.7160937 C42.4486579,38.7404687 42.4139364,38.766875 42.3807719,38.795 C40.6071732,40.1109375 38.3266096,41.1190625 35.5,41.1190625 C32.6733904,41.1190625 30.3928268,40.1109375 28.6190724,38.7948437 C28.5859079,38.766875 28.5513421,38.7404687 28.5152193,38.71625 C27.3703443,37.8492187 26.4404934,36.8573437 25.7169474,35.9340625 C23.5332303,33.1470312 22.3547237,29.8253125 22.3547237,28.1148437 Z M43.1480702,47.0421875 L35.5,52.77875 L27.8519298,47.0421875 C28.6103531,46.0748437 29.0352632,44.833125 29.0352632,43.725 L29.0352632,41.8365625 C30.8337741,42.8071875 32.9798114,43.4621875 35.5,43.4621875 C38.0201886,43.4621875 40.1663816,42.8071875 41.9647368,41.8365625 L41.9647368,43.725 C41.9647368,44.833125 42.3896469,46.0748437 43.1480702,47.0421875 Z M25.9036338,45.7345312 C25.2802039,45.49625 24.5890439,45.4571875 23.9352522,45.6351562 C23.9066031,45.641875 23.8785768,45.6495312 23.8513289,45.6576562 L19.8181864,46.8789062 C20.5003158,43.5129687 23.2238509,40.8339062 26.7005154,40.315 L26.7005154,43.725 C26.7005154,44.46 26.3735417,45.2198437 25.9036338,45.7345312 Z M29.0720088,55.1389062 C29.0698289,55.1334375 29.0676491,55.1279687 29.065625,55.1226562 C29.0064583,54.9725 28.9480702,54.824375 28.8901491,54.6779687 C28.8797171,54.6514062 28.8692851,54.625 28.8588531,54.59875 C28.8021776,54.4554687 28.7459693,54.3132812 28.6905395,54.1734375 C28.6866469,54.1635937 28.6827544,54.1539062 28.6788618,54.1439062 C28.5058772,53.7075 28.3391206,53.2889062 28.1787478,52.8878125 C28.1670702,52.85875 28.1553925,52.8292187 28.1437149,52.8003125 C28.0976272,52.6853125 28.052318,52.5720312 28.0073202,52.4601562 C27.9908158,52.4190625 27.9744671,52.3784375 27.9581184,52.3378125 C27.9145219,52.229375 27.8712368,52.1215625 27.8285746,52.0160937 C27.815807,51.9845312 27.8033509,51.9539062 27.790739,51.9225 C27.7133553,51.7309375 27.6376842,51.5442187 27.5638816,51.3621875 C27.5439518,51.3129687 27.5235548,51.2628125 27.5037807,51.2142187 C27.4748202,51.1432812 27.4466382,51.0742187 27.4183004,51.0046875 C27.3877829,50.9296875 27.3572654,50.8553125 27.3273706,50.7821875 C27.3161601,50.7548437 27.3044825,50.7259375 27.2932719,50.69875 C27.2842412,50.676875 27.275989,50.6567187 27.267114,50.635 C27.1322763,50.30625 27.0041338,49.9964062 26.8825307,49.705 C26.8815965,49.7026562 26.8805066,49.7003125 26.8795724,49.6979687 C26.8148004,49.5428125 26.7514298,49.39125 26.6905504,49.246875 C26.658943,49.1720312 26.6278026,49.0984375 26.5972851,49.02625 L33.1749057,53.9596875 L30.4264583,55.1314062 C30.4216316,55.1334375 30.4166491,55.1354687 30.4118224,55.1376562 L29.2643004,55.626875 C29.1992171,55.4617187 29.1355351,55.2998437 29.0720088,55.1389062 Z M31.8575132,62.3120312 C31.6269189,61.7115625 31.3946118,61.1076562 31.1618377,60.504375 C30.797807,59.5607812 30.450125,58.6635937 30.1173904,57.8089062 L30.5530439,57.623125 L32.3330263,59.6995312 L31.8575132,62.3120312 Z M35.5225768,71.8335938 C35.4891009,71.7639062 35.4492412,71.698125 35.4031535,71.636875 C34.875636,70.2376563 34.2061184,68.4671875 33.4651338,66.5192188 L34.5550461,60.5309375 L36.4449539,60.5309375 L37.5348662,66.5192188 C36.7583816,68.56 36.0609934,70.4053125 35.5225768,71.8335938 Z M36.8827873,58.188125 L34.1172127,58.188125 L32.8085395,56.6615625 L35.5,55.5142187 L38.1914605,56.6615625 L36.8827873,58.188125 Z M39.8381623,60.504375 C39.6053882,61.1076562 39.3730811,61.7115625 39.1424868,62.3120312 L38.6669737,59.699375 L40.4469561,57.6229687 L40.8826096,57.80875 C40.549875,58.6634375 40.202193,59.5607812 39.8381623,60.504375 Z M44.3096053,49.246875 C44.2518399,49.38375 44.191739,49.5273437 44.1305482,49.6739062 C44.1226075,49.6929687 44.114511,49.7121875 44.1065702,49.7314062 C44.0460022,49.8767187 43.9843443,50.0251562 43.9205066,50.1796875 C43.9163026,50.1898437 43.911943,50.200625 43.907739,50.2109375 C43.8526206,50.3442187 43.7961009,50.4817187 43.7386469,50.621875 C43.7279035,50.648125 43.7177829,50.6723437 43.7070395,50.69875 C43.6942719,50.7301562 43.6805702,50.7634375 43.6676469,50.7951562 C43.6421118,50.8576562 43.6161096,50.9214062 43.5899518,50.9851562 C43.5578772,51.06375 43.5259583,51.1420313 43.4931053,51.2225 C43.4826732,51.248125 43.4719298,51.2748437 43.4613421,51.300625 C43.3800658,51.5004687 43.2966096,51.7064062 43.2112851,51.9179688 C43.1978947,51.9510937 43.1846601,51.9835938 43.1712697,52.0171875 C43.1290746,52.1217187 43.0861009,52.2284375 43.0429715,52.3357812 C43.0261557,52.3778125 43.0091842,52.4196875 42.9922127,52.4621875 C42.947682,52.5729688 42.9026842,52.6851563 42.8572193,52.7989063 C42.8444518,52.830625 42.8315285,52.863125 42.818761,52.895 C42.6604123,53.290625 42.4961469,53.7032813 42.3256535,54.1332813 C42.3200482,54.1475 42.314443,54.1614063 42.3088377,54.1757812 C42.2537193,54.3146875 42.1979781,54.4559375 42.141614,54.5982813 C42.131182,54.6248438 42.1205943,54.6514063 42.1100066,54.678125 C42.0517741,54.8253125 41.9930746,54.9740625 41.9335965,55.1251563 C41.9325066,55.1279688 41.9314167,55.1307813 41.9303268,55.1334375 C41.8661776,55.29625 41.8017171,55.46 41.736011,55.6271875 L40.5873991,55.1375 C40.5833509,55.1357813 40.5793026,55.1340625 40.5754101,55.1323438 L37.8254057,53.96 L44.4030263,49.0265625 C44.3721974,49.0984375 44.341057,49.171875 44.3096053,49.246875 Z M47.1486711,45.6578125 C47.1485154,45.6578125 47.1482039,45.6576563 47.1480482,45.6576563 C47.147114,45.6573437 47.1460241,45.6571875 47.1450899,45.6567188 C46.4677873,45.4528125 45.7453311,45.4865625 45.0965219,45.7345313 C44.6264583,45.2198438 44.2996404,44.46 44.2996404,43.725 L44.2996404,40.3132813 C47.7981031,40.8307813 50.513386,43.4846875 51.1866404,46.8803125 L47.1486711,45.6578125 Z M56.208489,62.2460937 C56.208489,64.2967187 54.5460614,65.9648438 52.5027873,65.9648438 C50.4595132,65.9648438 48.7970855,64.2967187 48.7970855,62.2460937 C48.7970855,60.1954687 50.4595132,58.5273437 52.5027873,58.5273437 C54.5460614,58.5273437 56.208489,60.1954687 56.208489,62.2460937 Z" id="Shape"></path>
                            </g>
                        </g>
                    </g>
                </g>
            </g>
        </g>
    </g>
</svg>