<svg xmlns="http://www.w3.org/2000/svg" xmlns:xlink="http://www.w3.org/1999/xlink" width="80" height="80" viewBox="0 0 80 80"><defs><path id="ktsha" d="M1307.385 2788.868a1.335 1.335 0 0 0 1.79.582c.08-.04 7.912-4.019 11.775-5.24a1.33 1.33 0 0 0-.804-2.538c-4.069 1.287-11.849 5.239-12.179 5.407a1.332 1.332 0 0 0-.582 1.79z"/><path id="ktshb" d="M1308.573 2773.625c.202 0 .41-.047.603-.145.078-.04 7.911-4.019 11.774-5.24a1.33 1.33 0 0 0-.804-2.538c-4.07 1.287-11.849 5.239-12.179 5.407a1.332 1.332 0 0 0 .606 2.516z"/><path id="ktshc" d="M1340.513 2770.962a1.33 1.33 0 0 0-1.33 1.33v51.899a3.997 3.997 0 0 1-3.993 3.992h-31.937v-3.062c1.94-.678 6.994-2.26 11.976-2.26 11.593 0 19.464 2.566 19.542 2.593a1.33 1.33 0 0 0 1.75-1.263v-58.552c0-.624-.432-1.165-1.042-1.3 0 0-1.043-.232-2.826-.56a1.33 1.33 0 1 0-.482 2.618c.68.125 1.25.236 1.689.324v55.701c-3.016-.79-9.712-2.223-18.63-2.223-5.799 0-11.494 1.904-13.256 2.55-1.567-.692-6.301-2.55-12.029-2.55-9.166 0-16.716 1.512-19.96 2.28v-55.81c2.657-.654 10.505-2.361 19.96-2.361 4.852 0 9.013 1.51 10.646 2.193v52.367a1.33 1.33 0 0 0 2.016 1.14c.132-.078 13.317-7.953 25.02-11.854.544-.182.91-.689.91-1.263v-54.56a1.33 1.33 0 0 0-1.8-1.246c-10.647 3.993-21.42 10.697-21.528 10.764a1.331 1.331 0 0 0 1.41 2.257c.099-.063 9.471-5.894 19.256-9.829v51.662c-9.084 3.156-18.568 8.31-22.622 10.618v-50.918c0-.505-.285-.965-.736-1.191-.23-.113-5.683-2.801-12.572-2.801-12.024 0-21.269 2.601-21.657 2.713a1.33 1.33 0 0 0-.965 1.279v58.552a1.33 1.33 0 0 0 1.695 1.279c.092-.025 9.294-2.61 20.927-2.61 4.865 0 9.023 1.515 10.646 2.195v3.128h-31.937a3.997 3.997 0 0 1-3.993-3.992v-51.899a1.331 1.331 0 0 0-2.661 0v51.9a6.661 6.661 0 0 0 6.654 6.653h66.536a6.661 6.661 0 0 0 6.654-6.654v-51.899a1.33 1.33 0 0 0-1.33-1.33z"/><path id="ktshd" d="M1307.385 2780.878a1.335 1.335 0 0 0 1.79.582c.08-.04 7.912-4.019 11.775-5.24a1.33 1.33 0 0 0-.804-2.538c-4.069 1.287-11.849 5.239-12.179 5.407a1.332 1.332 0 0 0-.582 1.79z"/><path id="ktshe" d="M1307.385 2796.848a1.335 1.335 0 0 0 1.79.582c.08-.04 7.912-4.019 11.775-5.24a1.33 1.33 0 0 0-.804-2.538c-4.069 1.287-11.849 5.239-12.179 5.407a1.332 1.332 0 0 0-.582 1.79z"/><path id="ktshf" d="M1294.244 2775.696c-8.217-1.928-17.555.529-17.948.634a1.331 1.331 0 0 0 .69 2.57c.09-.025 9.08-2.39 16.651-.613a1.33 1.33 0 1 0 .607-2.59z"/><path id="ktshg" d="M1294.244 2783.686c-8.217-1.927-17.555.528-17.948.633a1.331 1.331 0 0 0 .69 2.571c.09-.025 9.08-2.39 16.651-.613a1.33 1.33 0 1 0 .607-2.59z"/><path id="ktshh" d="M1307.385 2804.838a1.335 1.335 0 0 0 1.79.582c.08-.04 7.912-4.019 11.775-5.24a1.33 1.33 0 0 0-.804-2.538c-4.069 1.287-11.849 5.239-12.179 5.407a1.332 1.332 0 0 0-.582 1.79z"/><path id="ktshi" d="M1294.244 2791.666c-8.217-1.927-17.555.527-17.948.633a1.331 1.331 0 0 0 .69 2.571c.09-.025 9.08-2.39 16.651-.613a1.33 1.33 0 0 0 .607-2.59z"/><path id="ktshj" d="M1294.244 2807.636c-8.217-1.928-17.555.529-17.948.634a1.331 1.331 0 0 0 .69 2.57c.09-.025 9.08-2.39 16.651-.613a1.33 1.33 0 1 0 .607-2.59z"/><path id="ktshk" d="M1294.244 2799.647c-8.217-1.929-17.555.526-17.948.633a1.331 1.331 0 0 0 .69 2.57c.09-.024 9.08-2.39 16.651-.613a1.33 1.33 0 1 0 .607-2.59z"/></defs><g><g transform="translate(-1262 -2751)"><g><use fill="#b1a26e" xlink:href="#ktsha"/></g><g><use fill="#b1a26e" xlink:href="#ktshb"/></g><g><use fill="#b1a26e" xlink:href="#ktshc"/></g><g><use fill="#b1a26e" xlink:href="#ktshd"/></g><g><use fill="#b1a26e" xlink:href="#ktshe"/></g><g><use fill="#b1a26e" xlink:href="#ktshf"/></g><g><use fill="#b1a26e" xlink:href="#ktshg"/></g><g><use fill="#b1a26e" xlink:href="#ktshh"/></g><g><use fill="#b1a26e" xlink:href="#ktshi"/></g><g><use fill="#b1a26e" xlink:href="#ktshj"/></g><g><use fill="#b1a26e" xlink:href="#ktshk"/></g></g></g></svg>