<svg xmlns="http://www.w3.org/2000/svg" xmlns:xlink="http://www.w3.org/1999/xlink" width="80" height="80" viewBox="0 0 80 80"><defs><path id="ythva" d="M148.441 2596.42a1.397 1.397 0 0 1-.71.374l-18.05 3.614c-.035.012-.07.027-.104.042a1.357 1.357 0 0 0-.266.11 1.31 1.31 0 0 0-.207.135 1.17 1.17 0 0 0-.11.072l-19.229 19.24-1.886-1.887 19.233-19.235c.032-.033.044-.075.072-.11a1.275 1.275 0 0 0 .251-.46c.013-.042.037-.077.046-.12l3.607-18.043c.05-.262.173-.504.356-.698l17.92-17.91 1.881 1.882-14.133 14.135a1.334 1.334 0 0 0 0 1.89l11.314 11.316a1.334 1.334 0 0 0 1.885 0l14.14-14.135 1.882 1.882zm26.226 26.41l-3.777 3.777-3.777-3.777 3.777-3.777zm-25.585-23.7l18.986 18.98-.944.945-.944.942-19.24-19.233a1.3 1.3 0 0 0-.11-.072 1.313 1.313 0 0 0-.207-.134 1.308 1.308 0 0 0-.266-.11.905.905 0 0 0-.104-.043l-1.498-.299 3.507-.701c.282-.062.557-.153.82-.272zm-44.031 27.477l-3.772-3.777 3.772-3.777 3.772 3.777zm6.434-49.977l14.134 14.134c.155.15.346.258.554.314l-.666 3.346-15.904-15.912zm-10.368-2.84a1.332 1.332 0 0 1 0-1.885l18.851-18.848a1.335 1.335 0 0 1 1.887 0l4.72 4.716-.934.933a.223.223 0 0 0-.021.014s-.008.015-.013.02l-18.811 18.798c-.007.008-.017.01-.024.018-.007.008-.01.017-.018.025l-.923.922zm27.358 5.83l-1.6 8.021-.302.302-13.2-13.2 9.435-9.435 9.502 9.502-2.766 2.766a4.053 4.053 0 0 0-1.069 2.044zm7.61-8.575l-1.89 1.887-9.504-9.507 1.881-1.881zm5.66 5.655l2.739 2.734c.19.196.32.441.371.708l.822 4.104-5.744-5.733zm7.618 11.245l-.302-.301-1.599-8.031a4.081 4.081 0 0 0-1.082-2.048l-2.753-2.75 9.496-9.502 9.43 9.435zm4.713-34.888a1.333 1.333 0 0 1 1.887 0l18.856 18.85c.52.52.52 1.363 0 1.883l-4.717 4.713-.924-.922c0-.008-.01-.019-.018-.025-.008-.007-.017-.01-.024-.018l-18.812-18.807s-.006-.015-.013-.02c-.007-.005-.015-.008-.021-.015l-.933-.932zm-4.719 4.707l-.944.942.943-.943zm18.862 22.635a2.665 2.665 0 0 0 3.772 0l4.713-4.714a4 4 0 0 0 0-5.657l-18.856-18.856a4 4 0 0 0-5.657 0l-4.714 4.713a2.67 2.67 0 0 0 0 3.772l-9.51 9.503-9.508-9.503a2.666 2.666 0 0 0 0-3.772l-4.714-4.713a4 4 0 0 0-5.657 0l-18.856 18.856a4 4 0 0 0 0 5.657l4.714 4.714a2.665 2.665 0 0 0 3.772 0l17.05 17.057-19.052 19.047a2.711 2.711 0 0 0-2.552.666l-4.713 4.713c-.521.521-.521 1.365 0 1.886l5.65 5.657a1.335 1.335 0 0 0 1.887 0l4.72-4.717a2.594 2.594 0 0 0 .681-2.57l19.207-19.2 7.357-1.466 7.387 1.466 19.2 19.2c-.262.917 0 1.903.681 2.568l4.715 4.715a1.334 1.334 0 0 0 1.887 0l5.663-5.647c.52-.52.52-1.364 0-1.885l-4.718-4.721a2.717 2.717 0 0 0-2.552-.667l-19.048-19.045 17.05-17.059z"/><path id="ythvb" d="M135.479 2585.378l7.014 7.021-8.777 1.762zm10.984 8.236a1.308 1.308 0 0 0 .053-.52 1.21 1.21 0 0 0 0-.133 1.001 1.001 0 0 0-.05-.122 1.264 1.264 0 0 0-.095-.23 1.249 1.249 0 0 0-.158-.239c-.026-.03-.035-.067-.063-.095l-10.541-10.541a1.208 1.208 0 0 0-.101-.067c-.071-.059-.148-.11-.23-.152a1.217 1.217 0 0 0-.23-.097c-.045-.013-.078-.042-.123-.052a1.335 1.335 0 0 0-.14 0 1.218 1.218 0 0 0-.24 0 1.262 1.262 0 0 0-.466.13c-.1.05-.194.113-.279.186-.023.021-.054.028-.076.05-.023.023-.03.053-.05.075a1.338 1.338 0 0 0-.181.274c-.033.063-.06.13-.083.197-.021.043-.04.088-.055.133l-2.64 13.19a1.334 1.334 0 0 0 1.575 1.566l13.186-2.64c.044-.015.087-.032.127-.053.074-.023.146-.053.213-.09.092-.045.177-.102.256-.167.026-.025.06-.032.084-.057.026-.026.035-.062.06-.09a1.29 1.29 0 0 0 .247-.456z"/></defs><g><g transform="translate(-98 -2550)"><g><use fill="#b1a26e" xlink:href="#ythva"/></g><g><use fill="#b1a26e" xlink:href="#ythvb"/></g></g></g></svg>