<svg xmlns="http://www.w3.org/2000/svg" xmlns:xlink="http://www.w3.org/1999/xlink" width="80" height="80" viewBox="0 0 80 80"><defs><path id="tlhca" d="M1048.323 2793.667c0 .736-.597 1.333-1.333 1.333H975a1.333 1.333 0 0 1-1.333-1.333V2791c0-.736.597-1.333 1.333-1.333h71.99c.736 0 1.333.597 1.333 1.333zM999 2757.255v23.078a1.333 1.333 0 0 0 2.667 0V2755c0-.736.597-1.333 1.333-1.333h6.667V2783a1.333 1.333 0 0 0 2.666 0v-29.333H1019c.736 0 1.333.597 1.333 1.333v25.333a1.333 1.333 0 0 0 2.667 0v-23.078a33.173 33.173 0 0 1 21.28 29.745h-66.56a33.173 33.173 0 0 1 21.28-29.745zm48 29.745h-.053a35.83 35.83 0 0 0-24.008-32.605A4 4 0 0 0 1019 2751h-16a4 4 0 0 0-3.939 3.395A35.83 35.83 0 0 0 975.053 2787H975a4 4 0 0 0-4 4v2.667a4 4 0 0 0 4 4h72a4 4 0 0 0 4-4V2791a4 4 0 0 0-4-4z"/><path id="tlhcb" d="M1004.333 2809.67H987a4 4 0 0 0-4 4v5.333a1.333 1.333 0 0 0 2.667 0v-5.333c0-.736.597-1.333 1.333-1.333h17.333a1.333 1.333 0 0 0 0-2.667z"/><path id="tlhcc" d="M1048.333 2813.663h-4v-1.333h4zm0 6.667h-4v-4h4zm-6.656 1.333a6.675 6.675 0 0 1-6.668 6.667h-8.001a14.755 14.755 0 0 1-12.605-7.156 3.974 3.974 0 0 0-6.801 0 14.755 14.755 0 0 1-12.6 7.156h-8a6.675 6.675 0 0 1-6.669-6.667v-10.666a4 4 0 0 1 4.001-4h53.342a4 4 0 0 1 4 4zm-64.01-6.656h-4v-1.344h4zm0 6.656h-4v-4h4zm72-12h-5.467a6.679 6.679 0 0 0-6.533-5.333h-53.334a6.675 6.675 0 0 0-6.666 6.667h-5.334c-.736 0-1.333.597-1.333 1.333v10.667c0 .736.597 1.333 1.333 1.333h5.734a9.346 9.346 0 0 0 8.933 6.667h8a17.428 17.428 0 0 0 14.89-8.455 1.308 1.308 0 0 1 2.22 0 17.428 17.428 0 0 0 14.89 8.455h8a9.333 9.333 0 0 0 9.227-8h5.44c.736 0 1.333-.597 1.333-1.334v-10.666c0-.737-.597-1.334-1.333-1.334z"/><path id="tlhcd" d="M1012.33 2809.67h-2.667a1.333 1.333 0 0 0 0 2.667h2.667a1.333 1.333 0 0 0 0-2.667z"/></defs><g><g transform="translate(-971 -2751)"><g><use fill="#b1a26e" xlink:href="#tlhca"/></g><g><use fill="#b1a26e" xlink:href="#tlhcb"/></g><g><use fill="#b1a26e" xlink:href="#tlhcc"/></g><g><use fill="#b1a26e" xlink:href="#tlhcd"/></g></g></g></svg>