<svg xmlns="http://www.w3.org/2000/svg" xmlns:xlink="http://www.w3.org/1999/xlink" width="69" height="81" viewBox="0 0 69 81"><defs><path id="jyfka" d="M721.562 2555.078h-.893v-.898c0-.652-.524-1.18-1.172-1.18-.647 0-1.172.528-1.172 1.18v.898h-.893c-.647 0-1.172.528-1.172 1.18 0 .65.525 1.179 1.172 1.179h.893v.898c0 .651.525 1.18 1.172 1.18.648 0 1.172-.529 1.172-1.18v-.898h.893c.647 0 1.172-.528 1.172-1.18 0-.651-.525-1.18-1.172-1.18z"/><path id="jyfkb" d="M726.682 2589.65c-2.168 1.879-3.84 3.113-7.177 3.153-3.338-.04-5.01-1.275-7.178-3.152-2.879-2.493-4.63-5.537-4.687-8.144a1.176 1.176 0 0 0-1.172-1.154h-.893a1.192 1.192 0 0 1-1.187-1.194v-2.63c0-.055.005-.109.012-.162l.009-.054a1.19 1.19 0 0 1 1.167-.978h.889c.647 0 1.172-.528 1.172-1.18v-1.462c.07-3.991 3.449-5.856 4.519-6.146 3.438 3.528 7.665 6.736 19.234 7.812.096.554.576.976 1.155.976h.889a1.19 1.19 0 0 1 1.188 1.194v2.63c0 .658-.533 1.194-1.188 1.194h-.893c-.637 0-1.158.513-1.172 1.154-.056 2.607-1.808 5.65-4.687 8.144zm.022 11.525h-14.389l-.907-1.8c1.106-.93 1.852-2.448 1.852-3.961v-2.036c1.537.993 3.46 1.764 6.237 1.795h.026c2.777-.031 4.7-.802 6.236-1.795v2.036c0 1.513.746 3.031 1.852 3.961zm-5.92 11.747l-.148.292c-.02.042-.045.08-.07.118l-.022.038c-.014.021-.032.04-.048.06-.056.073-.117.14-.186.198-.015.012-.03.021-.046.033a1.249 1.249 0 0 1-.76.252c-.488 0-.91-.261-1.131-.699l-4.872-9.68h12.008zm-15.431-25.633a5.14 5.14 0 0 1-1.387-3.87l.066-1.06a3.5 3.5 0 0 0 1.364.354c.358 2.423 1.626 4.544 2.918 6.15a5.095 5.095 0 0 1-2.961-1.574zm29.69-3.87a5.14 5.14 0 0 1-1.387 3.87c-.8.856-1.83 1.4-2.961 1.574 1.292-1.606 2.56-3.727 2.918-6.15a3.498 3.498 0 0 0 1.364-.355zm-25.287-29.115a.564.564 0 0 1 .386-.286l6.731-1.375a13.906 13.906 0 0 1 2.785-.283c.93 0 1.86.095 2.784.283l6.731 1.375a.564.564 0 0 1 .387.286.57.57 0 0 1 .032.481l-1.694 4.453a1.667 1.667 0 0 1-1.547 1.071h-13.386c-.682 0-1.304-.43-1.548-1.071l-1.694-4.453a.57.57 0 0 1 .033-.481zm44.084 72.45l-3.427-20.184a5.772 5.772 0 0 0-4.028-4.589l-15.38-4.67a2.541 2.541 0 0 0-1.968.206c-.546-.49-.945-1.328-.945-2.103v-3.864l.119-.103c.06-.05.122-.106.187-.164h1.506a7.398 7.398 0 0 0 5.462-2.379 7.492 7.492 0 0 0 2.015-5.635l-.418-6.637v-.1c0-.18-.013-.358-.04-.532l-.467-7.433c-.041-.65-.6-1.144-1.244-1.103a1.177 1.177 0 0 0-1.096 1.252l.276 4.397a3.504 3.504 0 0 0-.96-.134h-.066a2.118 2.118 0 0 0-1.589-.95c-12.17-1.103-15.673-4.76-18.232-7.43-.532-.555-1.404-.597-2.592-.126-2.066.819-5.582 3.466-5.659 8.193v.324c-.233.019-.46.061-.678.123l.362-5.748c.192-3.058 1.722-5.784 4.163-7.517l.089.233a4.025 4.025 0 0 0 3.737 2.587h13.381a4.025 4.025 0 0 0 3.737-2.587l.02-.054a9.934 9.934 0 0 1 2.977 3.662 1.172 1.172 0 0 0 1.564.555c.584-.281.83-.986.551-1.573a12.273 12.273 0 0 0-4.226-4.92l.808-2.123a2.944 2.944 0 0 0-.168-2.46 2.911 2.911 0 0 0-1.975-1.462l-6.728-1.375a16.139 16.139 0 0 0-6.5 0l-6.73 1.374a2.911 2.911 0 0 0-1.974 1.462 2.944 2.944 0 0 0-.168 2.461l.746 1.96c-3.306 2.116-5.393 5.643-5.644 9.628l-.556 8.83c-.021.16-.036.321-.036.486v.1l-.418 6.637a7.492 7.492 0 0 0 2.015 5.635 7.398 7.398 0 0 0 5.462 2.379h1.506l.187.164.119.103v3.863c0 .776-.399 1.614-.945 2.103a2.54 2.54 0 0 0-1.967-.205l-15.381 4.67a5.772 5.772 0 0 0-4.029 4.589l-1.287 7.582a1.173 1.173 0 1 0 2.311.397l1.288-7.582a3.43 3.43 0 0 1 2.394-2.727l15.381-4.67c.1-.03.208.016.255.11l7.344 14.6c.194.383.447.722.746 1.006a3.583 3.583 0 0 0 2.477.986 3.594 3.594 0 0 0 3.223-1.993l7.344-14.6a.214.214 0 0 1 .255-.11l15.382 4.67a3.43 3.43 0 0 1 2.394 2.728l3.426 20.184c.074.436-.119.745-.24.89a1.072 1.072 0 0 1-.832.389h-7.263l-1.916-11.287a1.173 1.173 0 0 0-1.353-.965c-.639.11-1.068.72-.959 1.362l1.849 10.89h-42.62l1.85-10.89a1.179 1.179 0 0 0-.959-1.362 1.173 1.173 0 0 0-1.353.965l-1.916 11.287h-7.263c-.44 0-.71-.244-.832-.389a1.086 1.086 0 0 1-.24-.89l1.192-7.026a1.179 1.179 0 0 0-.958-1.362 1.173 1.173 0 0 0-1.353.965l-1.193 7.026a3.463 3.463 0 0 0 .76 2.809 3.417 3.417 0 0 0 2.624 1.226h61.903c1.014 0 1.97-.447 2.624-1.226a3.46 3.46 0 0 0 .76-2.808z"/></defs><g><g transform="translate(-685 -2550)"><g><use fill="#b1a26e" xlink:href="#jyfka"/></g><g><use fill="#b1a26e" xlink:href="#jyfkb"/></g></g></g></svg>