<svg xmlns="http://www.w3.org/2000/svg" xmlns:xlink="http://www.w3.org/1999/xlink" width="80" height="80" viewBox="0 0 80 80"><defs><path id="83lna" d="M174.865 2797.345a2.916 2.916 0 0 1-2.499 2.882v-13.285a1.562 1.562 0 1 0-3.123 0v13.319c-.887-2.868-3.562-4.957-6.715-4.957h-1.406v-8.362a1.562 1.562 0 1 0-3.123 0v8.362h-1.874v-9.687c0-.508-.244-.959-.619-1.244a5.86 5.86 0 0 1 5.848-5.626h3.744l.085.002.084-.002h3.745a5.861 5.861 0 0 1 5.853 5.856zm-8.115 30.524v-19.912a7.06 7.06 0 0 0 2.5-3.547v23.46zm-8.75 0h-39.147v-11.002h18.288a1.563 1.563 0 0 0 0-3.125h-18.288v-4.375H158zm-56.875-22.139c0-4.026 3.275-7.3 7.301-7.3.248 0 .494.012.738.036a6.993 6.993 0 0 0-.852 1.796 5.317 5.317 0 0 0-5.198 5.31 5.318 5.318 0 0 0 5.312 5.312 5.295 5.295 0 0 0 4.129-1.969c.77.291 1.605.452 2.476.452h.697v18.502h-14.603zm7.301-28.499a3.864 3.864 0 0 1-3.86-3.86 3.864 3.864 0 0 1 3.86-3.86 3.865 3.865 0 0 1 3.86 3.86 3.864 3.864 0 0 1-3.86 3.86zm18.42-22.34c.495.496.768 1.155.768 1.856 0 .639-.229 1.241-.644 1.719-.042.034-.083.07-.123.11a2.614 2.614 0 0 1-3.693 0 2.614 2.614 0 0 1 0-3.692c.024-.024.046-.049.068-.074a2.626 2.626 0 0 1 3.623.08zm11.831 12.534a1.697 1.697 0 0 1-2.896 1.2l-7.269-7.27.543-.542a5.732 5.732 0 0 0 1.409-2.304l7.716 7.717c.32.32.497.746.497 1.2zm-17.732-6.639a5.708 5.708 0 0 0 2.309 1.409l-8.413 8.413a7.026 7.026 0 0 0-3.738-3.688l8.439-8.438a5.7 5.7 0 0 0 1.403 2.304zm3.217 26.393h8.124v8.115h-8.125zm20.713 0h8.115v8.115h-8.115zm-36.792 16.235a7.006 7.006 0 0 0 1.844 3.75 2.19 2.19 0 0 1-3.688-1.592c0-1.09.8-1.993 1.844-2.158zm53.042 5.953h1.406c.373 0 .738-.03 1.094-.086v18.588h-2.5zm1.406-10.938a3.91 3.91 0 0 1 3.906 3.906 3.91 3.91 0 0 1-3.906 3.907h-47.5a3.91 3.91 0 0 1-3.906-3.907 3.91 3.91 0 0 1 3.906-3.906zm1.104-35.057v3.435h-3.102a4.803 4.803 0 0 1 3.102-3.435zm6.207 3.435h-3.092v-3.435a4.798 4.798 0 0 1 3.092 3.435zm-4.739 8.815a3.754 3.754 0 0 1-3.665-3.748v-1.942h7.5v1.942a3.754 3.754 0 0 1-3.666 3.748zm5.72.183a6.84 6.84 0 0 0 1.24-3.931v-2.037a1.563 1.563 0 0 0 1.027-1.467v-.484c0-4.357-3.545-7.902-7.903-7.902-4.357 0-7.902 3.545-7.902 7.902v.484c0 .674.429 1.247 1.028 1.467v2.037c0 1.46.458 2.815 1.239 3.93-3.916.803-6.91 4.161-7.159 8.25h-9.08c-.864 0-1.563.7-1.563 1.563v9.687h-6.338v-9.687c0-.863-.7-1.563-1.563-1.563h-11.25c-.863 0-1.563.7-1.563 1.563v9.687h-5.625v-20.847l10.892-10.891 7.269 7.269c.58.58 1.271.98 2.006 1.202v2.638l-3.266 3.266c-.293.293-.458.69-.458 1.105v2.886a1.563 1.563 0 0 0 3.125 0v-2.238l2.162-2.161 2.16 2.16v2.005a1.563 1.563 0 0 0 3.126 0v-2.652c0-.414-.165-.812-.458-1.105l-3.266-3.266v-2.749a4.798 4.798 0 0 0 1.687-1.091 4.79 4.79 0 0 0 1.412-3.41 4.789 4.789 0 0 0-1.412-3.409l-11.34-11.34-.008-.007a5.758 5.758 0 0 0-8.12.012l-13.834 13.835c-3.213.627-5.647 3.461-5.647 6.855v8.092a1.563 1.563 0 0 0 3.125 0v-2.275a6.94 6.94 0 0 0 3.86 1.168 6.94 6.94 0 0 0 3.86-1.168v16.675c-.073.03-.145.064-.218.098a10.383 10.383 0 0 0-3.642-.657c-1.364 0-2.665.266-3.86.744v-3.023a1.563 1.563 0 0 0-3.125 0v4.971A10.403 10.403 0 0 0 98 2805.73v23.702c0 .862.7 1.562 1.562 1.562h71.25c.863 0 1.563-.7 1.563-1.562v-26.064a6.045 6.045 0 0 0 5.625-6.023v-12.742c0-4.334-3.086-7.961-7.177-8.798z"/><path id="83lnb" d="M103.002 2789.275a1.566 1.566 0 0 0 1.563-1.563 1.566 1.566 0 0 0-1.563-1.562c-.41 0-.814.167-1.104.458-.29.29-.458.693-.458 1.104 0 .411.167.814.458 1.105.29.29.694.458 1.104.458z"/><path id="83lnc" d="M108.422 2771.81c-.412 0-.814.167-1.104.458-.29.29-.458.694-.458 1.104 0 .413.167.815.458 1.105.29.29.692.458 1.104.458.411 0 .814-.167 1.105-.458.29-.29.458-.693.458-1.105 0-.41-.167-.813-.458-1.104a1.576 1.576 0 0 0-1.104-.458z"/><path id="83lnd" d="M123.897 2757.837c.291.29.693.458 1.104.458.412 0 .814-.167 1.106-.458.29-.29.458-.693.458-1.105 0-.41-.167-.813-.458-1.104a1.582 1.582 0 0 0-1.106-.458c-.411 0-.813.167-1.104.458-.291.29-.457.694-.457 1.104 0 .412.166.815.457 1.105z"/><path id="83lne" d="M129.563 2800.77c-.411 0-.815.167-1.105.458-.29.29-.458.694-.458 1.104 0 .411.167.815.458 1.105.29.292.694.458 1.105.458.41 0 .814-.166 1.104-.458.29-.29.458-.694.458-1.104 0-.411-.167-.815-.458-1.105a1.575 1.575 0 0 0-1.105-.458z"/><path id="83lnf" d="M119.563 2800.77c-.411 0-.815.167-1.105.458-.29.29-.458.694-.458 1.104 0 .413.167.815.458 1.105.29.29.692.458 1.104.458.411 0 .815-.167 1.105-.458.29-.29.458-.692.458-1.104 0-.411-.167-.815-.458-1.105a1.575 1.575 0 0 0-1.104-.458z"/><path id="83lng" d="M159.563 2803.895c.41 0 .814-.166 1.104-.458.29-.29.458-.692.458-1.104 0-.411-.167-.815-.458-1.105a1.575 1.575 0 0 0-1.105-.458c-.41 0-.814.167-1.104.458-.29.29-.458.694-.458 1.104a1.567 1.567 0 0 0 1.563 1.563z"/><path id="83lnh" d="M139.563 2800.77c-.411 0-.815.167-1.105.458-.29.29-.458.694-.458 1.104 0 .411.167.815.458 1.105.29.292.694.458 1.105.458.41 0 .814-.166 1.104-.458.29-.29.458-.692.458-1.104 0-.411-.167-.815-.458-1.105a1.575 1.575 0 0 0-1.105-.458z"/><path id="83lni" d="M149.563 2800.77c-.411 0-.815.167-1.105.458-.29.29-.458.694-.458 1.104 0 .411.167.815.458 1.105.29.292.694.458 1.105.458.41 0 .814-.166 1.104-.458.29-.29.458-.694.458-1.104 0-.411-.167-.815-.458-1.105a1.575 1.575 0 0 0-1.105-.458z"/><path id="83lnj" d="M143.142 2816.865c.412 0 .815-.166 1.105-.458.29-.29.458-.692.458-1.105 0-.41-.167-.814-.458-1.104a1.572 1.572 0 0 0-1.105-.458c-.41 0-.814.167-1.104.458-.29.29-.458.694-.458 1.104a1.567 1.567 0 0 0 1.562 1.563z"/></defs><g><g transform="translate(-98 -2751)"><g><use fill="#b1a26e" xlink:href="#83lna"/></g><g><use fill="#b1a26e" xlink:href="#83lnb"/></g><g><use fill="#b1a26e" xlink:href="#83lnc"/></g><g><use fill="#b1a26e" xlink:href="#83lnd"/></g><g><use fill="#b1a26e" xlink:href="#83lne"/></g><g><use fill="#b1a26e" xlink:href="#83lnf"/></g><g><use fill="#b1a26e" xlink:href="#83lng"/></g><g><use fill="#b1a26e" xlink:href="#83lnh"/></g><g><use fill="#b1a26e" xlink:href="#83lni"/></g><g><use fill="#b1a26e" xlink:href="#83lnj"/></g></g></g></svg>