<svg xmlns="http://www.w3.org/2000/svg" xmlns:xlink="http://www.w3.org/1999/xlink" width="87" height="81" viewBox="0 0 87 81"><defs><path id="sc8sa" d="M1052.64 2627.85h-84.188c-.802 0-1.452.703-1.452 1.57 0 .868.65 1.572 1.452 1.572h84.187c.802 0 1.452-.704 1.452-1.571 0-.868-.65-1.571-1.452-1.571z"/><path id="sc8sb" d="M1037.318 2591.822a2.556 2.556 0 0 1-1.853.831 2.572 2.572 0 0 1-1.876-.84l-8.957-9.683a1.375 1.375 0 0 0-2.052 0l-7.252 7.853a1.664 1.664 0 0 0 0 2.22l6.82 7.393v18.816c0 1.735-1.299 3.142-2.902 3.142-1.603 0-2.903-1.407-2.903-3.142v-14.764c0-.417-.153-.816-.425-1.11l-26.122-28.273a1.375 1.375 0 0 0-2.052 0c-3.768 4.086-3.768 10.701 0 14.787l.55.595a1.865 1.865 0 0 1 0 2.49c-.305.331-.72.517-1.151.516a1.578 1.578 0 0 1-1.151-.515l-.55-.595c-5.044-5.46-5.044-14.31 0-19.769l1.275-1.379c3.55-3.863 8.38-6.028 13.413-6.014 4.14-.004 7.497-3.633 7.506-8.114 0-.867.65-1.57 1.451-1.57.802 0 1.451.703 1.451 1.57v.269c-.006 6.069-4.55 10.988-10.158 10.994-.802 0-1.452.704-1.452 1.571v1.57c0 .417.153.817.426 1.111l11.61 12.566a1.375 1.375 0 0 0 2.052 0l10.584-11.454 13.736 14.865c1.031 1.128 1.023 2.946-.018 4.063zm-58.708-32.144c0-3.47 2.6-6.284 5.806-6.284 3.207 0 5.806 2.813 5.806 6.284 0 3.47-2.6 6.283-5.806 6.283s-5.806-2.813-5.806-6.283zm60.794 25.865l-14.765-15.976a1.375 1.375 0 0 0-2.052 0l-10.592 11.453-9.699-10.497c6.403-1.034 11.143-6.981 11.15-13.987v-.269c0-2.602-1.949-4.712-4.354-4.712-2.405 0-4.355 2.11-4.355 4.712-.003 2.75-2.062 4.98-4.604 4.982-2.55.005-5.078.493-7.472 1.44 1.542-4.93-.902-10.28-5.458-11.95-4.556-1.668-9.5.977-11.041 5.908-1.542 4.93.902 10.28 5.458 11.949.719.263 1.467.424 2.224.477l-.444.494c-6.178 6.686-6.178 17.527 0 24.214l.55.595c1.775 1.909 4.643 1.899 6.407-.022.842-.916 1.315-2.156 1.317-3.448.003-1.301-.474-2.55-1.327-3.467l-.55-.596c-2.238-2.43-2.619-6.216-.916-9.11l20.188 21.838h-11.59c-.8 0-1.45.703-1.45 1.57 0 .868.65 1.572 1.45 1.572h14.487l1.48 1.602v14.107a6.674 6.674 0 0 0 .786 3.142h-9.495c-.801 0-1.451.703-1.451 1.57 0 .868.65 1.572 1.451 1.572h14.516c3.206 0 5.806-2.814 5.806-6.284v-19.48c0-.416-.153-.815-.426-1.11l-6.23-6.744 5.204-5.624 7.939 8.584c2.17 2.348 5.688 2.348 7.858 0 2.17-2.349 2.17-6.157 0-8.505z"/><path id="sc8sc" d="M998.935 2621.57h-2.903c-.802 0-1.452.703-1.452 1.57 0 .868.65 1.572 1.452 1.572h2.903c.801 0 1.451-.704 1.451-1.571 0-.868-.65-1.571-1.451-1.571z"/><path id="sc8sd" d="M991.675 2599.58h-2.903c-.802 0-1.452.703-1.452 1.57 0 .868.65 1.572 1.452 1.572h2.903c.801 0 1.451-.704 1.451-1.571 0-.868-.65-1.571-1.451-1.571z"/></defs><g><g transform="translate(-967 -2550)"><g><use fill="#b1a26e" xlink:href="#sc8sa"/></g><g><use fill="#b1a26e" xlink:href="#sc8sb"/></g><g><use fill="#b1a26e" xlink:href="#sc8sc"/></g><g><use fill="#b1a26e" xlink:href="#sc8sd"/></g></g></g></svg>