<svg xmlns="http://www.w3.org/2000/svg" xmlns:xlink="http://www.w3.org/1999/xlink" width="73" height="80" viewBox="0 0 73 80"><defs><path id="hfg7a" d="M1327.96 2605.604l-20.205-22.075 4.221-4.204 22.167 20.121zm-28.357-18.337l-12.385-12.343 16.114-16.059 12.385 12.342zm-3.333 5.103l-14.184-14.131 2.026-2.02 14.185 14.132zm10.395-38.618l14.184 14.131-2.026 2.02-14.185-14.133zm30.787 44.501l-23.267-21.128 3.757-3.743a1.56 1.56 0 0 0 1.984-.183l4.232-4.217a1.55 1.55 0 0 0 0-2.198l-16.39-16.329a1.564 1.564 0 0 0-2.206 0l-4.233 4.217a1.55 1.55 0 0 0-.183 1.976l-16.153 16.092a1.564 1.564 0 0 0-1.984.183l-4.232 4.217a1.55 1.55 0 0 0 0 2.198l16.39 16.33a1.563 1.563 0 0 0 2.206 0l4.233-4.218c.54-.537.6-1.37.183-1.976l3.758-3.743 21.207 23.18a1.563 1.563 0 0 0 2.256.052l8.494-8.462a1.551 1.551 0 0 0-.052-2.248z"/><path id="hfg7b" d="M1321.45 2626.444h-50.227a3.06 3.06 0 0 1-3.063-3.05 3.06 3.06 0 0 1 3.063-3.05H1306.108c.861 0 1.56-.695 1.56-1.553s-.699-1.553-1.56-1.553h-32.065v-2.03a3.06 3.06 0 0 1 3.064-3.05h38.46a3.06 3.06 0 0 1 3.063 3.05v3.583c0 .858.698 1.553 1.56 1.553h1.26a3.06 3.06 0 0 1 3.063 3.05 3.06 3.06 0 0 1-3.063 3.05zm.3-9.195v-2.04c0-3.396-2.774-6.159-6.183-6.159h-38.46c-3.41 0-6.184 2.763-6.184 6.16v2.04c-3.27.156-5.883 2.855-5.883 6.152 0 3.396 2.774 6.16 6.183 6.16h50.227c3.41 0 6.183-2.764 6.183-6.16 0-3.297-2.613-5.996-5.883-6.153z"/><path id="hfg7c" d="M1313.738 2619.31a1.541 1.541 0 0 0-.232-.56 1.478 1.478 0 0 0-.43-.428 1.542 1.542 0 0 0-.562-.232 1.55 1.55 0 0 0-1.17.232 1.556 1.556 0 0 0-.432 2.154 1.588 1.588 0 0 0 .7.573 1.565 1.565 0 0 0 2.126-1.131 1.543 1.543 0 0 0 0-.608z"/><path id="hfg7d" d="M1296.34 2597.83c-.862 0-1.56.696-1.56 1.554v3.017c0 .858.698 1.554 1.56 1.554.861 0 1.56-.696 1.56-1.554v-3.017c0-.858-.699-1.554-1.56-1.554z"/><path id="hfg7e" d="M1287.52 2603.512l-2.787-2.777a1.564 1.564 0 0 0-2.206 0 1.55 1.55 0 0 0 0 2.198l2.788 2.777c.304.303.703.455 1.103.455.399 0 .798-.152 1.103-.455a1.55 1.55 0 0 0 0-2.198z"/><path id="hfg7f" d="M1310.15 2600.735a1.564 1.564 0 0 0-2.206 0l-2.787 2.777a1.55 1.55 0 0 0 0 2.198c.304.303.704.455 1.103.455s.798-.152 1.103-.455l2.787-2.777a1.55 1.55 0 0 0 0-2.198z"/></defs><g><g transform="translate(-1265 -2550)"><g><use fill="#b1a26e" xlink:href="#hfg7a"/></g><g><use fill="#b1a26e" xlink:href="#hfg7b"/></g><g><use fill="#b1a26e" xlink:href="#hfg7c"/></g><g><use fill="#b1a26e" xlink:href="#hfg7d"/></g><g><use fill="#b1a26e" xlink:href="#hfg7e"/></g><g><use fill="#b1a26e" xlink:href="#hfg7f"/></g></g></g></svg>