<svg xmlns="http://www.w3.org/2000/svg" xmlns:xlink="http://www.w3.org/1999/xlink" width="86" height="80" viewBox="0 0 86 80"><defs><path id="hmo9a" d="M729.66 2810.551a1.696 1.696 0 0 1-.643-.128 1.76 1.76 0 0 1-.291-.155 1.915 1.915 0 0 1-.255-.21 1.75 1.75 0 0 1-.363-.548 1.666 1.666 0 0 1-.096-.974 1.684 1.684 0 0 1 .25-.607 1.69 1.69 0 0 1 2.04-.62c.1.042.198.094.29.154a1.597 1.597 0 0 1 .463.466 1.684 1.684 0 0 1-.208 2.128 1.874 1.874 0 0 1-.255.21 1.683 1.683 0 0 1-.932.283z"/><path id="hmo9b" d="M680.453 2827.584c.13-1.162.395-2.297.792-3.394h78.133a17.127 17.127 0 0 1 .257 3.394zm7.646-11.382v4.616h-5.116a14.932 14.932 0 0 1 5.116-4.616zm8.73-38.583c0-12.818 10.394-23.247 23.171-23.247s23.171 10.429 23.171 23.247v35.732H739.9v-35.722c0-11.014-8.927-19.975-19.899-19.975-10.972 0-19.9 8.96-19.9 19.975v35.722h-3.271zm6.631 32.932h19.585c.928 0 1.68-.754 1.68-1.686 0-.931-.752-1.686-1.68-1.686H703.46v-29.55c0-9.155 7.42-16.603 16.54-16.603s16.54 7.448 16.54 16.603v35.722h-33.08zm-12.002 10.277v-4.105h57.084v4.105zm60.443-.01v-5.781c0-.93-.753-1.686-1.68-1.686h-3.69v-2.705c5.336 1.243 9.815 5.095 11.877 10.172zm4.296-8.837a20.12 20.12 0 0 0-9.666-4.782v-29.58c0-14.678-11.902-26.619-26.531-26.619s-26.53 11.94-26.53 26.619v33.487c-.062 0-.124.003-.186.009-6.422.673-12.056 4.772-14.701 10.7a18.16 18.16 0 0 0-1.583 7.455c0 .931.752 1.686 1.68 1.686h82.522c.855 0 1.574-.646 1.669-1.5a20.488 20.488 0 0 0-.514-7.375 20.28 20.28 0 0 0-6.16-10.1z"/></defs><g><g transform="translate(-677 -2751)"><g><use fill="#b1a26e" xlink:href="#hmo9a"/></g><g><use fill="#b1a26e" xlink:href="#hmo9b"/></g></g></g></svg>