<?xml version="1.0" encoding="UTF-8"?>
<svg width="80px" height="80px" viewBox="0 0 80 80" version="1.1" xmlns="http://www.w3.org/2000/svg" xmlns:xlink="http://www.w3.org/1999/xlink">
    <!-- Generator: Sketch 52.4 (67378) - http://www.bohemiancoding.com/sketch -->
    <title>icon-car-accidents</title>
    <desc>Created with Sketch.</desc>
    <g id="Web-2-Copy" stroke="none" stroke-width="1" fill="none" fill-rule="evenodd">
        <g id="home" transform="translate(-389.000000, -2751.000000)" fill="#B1A26E" fill-rule="nonzero">
            <g id="practices" transform="translate(0.000000, 2315.000000)">
                <g id="content" transform="translate(0.000000, 205.000000)">
                    <g id="list" transform="translate(13.000000, 201.000000)">
                        <g id="practice" transform="translate(291.000000, 30.000000)">
                            <g id="icon-car-accidents" transform="translate(85.000000, 0.000000)">
                                <path d="M40,0 C17.9445161,0 0,17.9432258 0,40 C0,62.0567742 17.9445161,80 40,80 C62.0554839,80 80,62.0567742 80,40 C80,17.9432258 62.0554839,0 40,0 Z M41.2903226,2.61419355 C60.8980645,3.28258065 76.7174194,19.1019355 77.3870968,38.7096774 L73.4890323,38.7096774 C73.3470968,35.003871 72.6322581,31.3703226 71.2903226,27.9006452 L70.9587097,27.043871 L69.6774194,27.0967742 C65.4077419,27.0967742 61.9354839,23.6245161 61.9354839,19.3548387 C61.9354839,18.3083871 62.1406452,17.2929032 62.5458065,16.3367742 L62.9070968,15.4825806 L62.2116129,14.8670968 C56.4012903,9.72774194 49.0129032,6.80774194 41.2903226,6.51096774 L41.2903226,2.61419355 Z M59.8374194,16.2283871 C59.516129,17.2348387 59.3548387,18.283871 59.3548387,19.3548387 C59.3548387,24.883871 63.7251613,29.4116129 69.1922581,29.6658065 C69.6322581,30.9070968 69.963871,32.1741935 70.2412903,33.4529032 L59.7316129,32.2012903 C57.5445161,26.1148387 51.6722581,21.9354839 45.1612903,21.9354839 L34.8387097,21.9354839 C28.3277419,21.9354839 22.4554839,26.1148387 20.2683871,32.2012903 L9.75870968,33.4529032 C10.036129,32.1741935 10.3677419,30.9070968 10.8077419,29.6658065 C16.2748387,29.4116129 20.6451613,24.883871 20.6451613,19.3548387 C20.6451613,18.283871 20.483871,17.2348387 20.1625806,16.2283871 C25.7251613,11.5819355 32.7354839,9.03225806 40,9.03225806 C47.2645161,9.03225806 54.2748387,11.5819355 59.8374194,16.2283871 Z M38.7096774,2.61290323 L38.7096774,6.50967742 C30.9870968,6.80774194 23.5987097,9.72645161 17.7883871,14.8670968 L17.0929032,15.4825806 L17.4541935,16.3367742 C17.8593548,17.2929032 18.0645161,18.3083871 18.0645161,19.3548387 C18.0645161,23.6245161 14.5922581,27.0967742 10.3225806,27.0967742 L9.04129032,27.043871 L8.70967742,27.9006452 C7.36774194,31.3703226 6.65290323,35.003871 6.51096774,38.7096774 L2.61290323,38.7096774 C3.28258065,19.1019355 19.1019355,3.28258065 38.7096774,2.61290323 Z M38.7096774,77.3870968 C19.1019355,76.7174194 3.28258065,60.8980645 2.61290323,41.2903226 L6.48387097,41.2903226 C7.14967742,58.763871 21.236129,72.8503226 38.7096774,73.516129 L38.7096774,77.3870968 Z M9.73419355,46.5432258 L22.3032258,48.0258065 C24.523871,51.716129 27.8632258,54.6374194 31.8193548,56.3535484 L33.4567742,70.2658065 C21.6245161,67.7096774 12.2903226,58.3754839 9.73419355,46.5432258 Z M36.1083871,70.7148387 L34.2025806,54.5277419 L33.48,54.2464516 C29.5574194,52.7187097 26.2696774,49.8593548 24.2219355,46.1909677 L23.9006452,45.6154839 L9.28516129,43.8916129 C9.12516129,42.6154839 9.03225806,41.3187097 9.03225806,40 C9.03225806,38.6903226 9.14193548,37.3935484 9.30451613,36.1058065 L22.2322581,34.5664516 L22.4735484,33.7535484 C24.0903226,28.3135484 29.1741935,24.516129 34.8387097,24.516129 L45.1612903,24.516129 C50.8258065,24.516129 55.9096774,28.3135484 57.5264516,33.7535484 L57.7677419,34.5664516 L70.6954839,36.1058065 C70.8580645,37.3935484 70.9677419,38.6903226 70.9677419,40 C70.9677419,41.3135484 70.8567742,42.6090323 70.6954839,43.8941935 L56.1006452,45.6154839 L55.7793548,46.1909677 C53.7316129,49.8593548 50.443871,52.72 46.5212903,54.2464516 L45.7974194,54.5277419 L43.8929032,70.7032258 C42.6103226,70.8632258 41.3135484,70.9677419 40,70.9677419 C38.6812903,70.9677419 37.3845161,70.8748387 36.1083871,70.7148387 Z M41.2903226,77.3870968 L41.2903226,73.4967742 C48.1432258,73.24 54.636129,70.9690323 60.1329032,66.8374194 L58.5832258,64.7729032 C54.9677419,67.4903226 50.8812903,69.3251613 46.5445161,70.2554839 L48.1806452,56.3522581 C52.1367742,54.636129 55.476129,51.7148387 57.6967742,48.0245161 L70.2516129,46.5445161 C69.0516129,52.1290323 66.3432258,57.2916129 62.2967742,61.4890323 L64.1535484,63.2812903 C69.9109677,57.3096774 73.203871,49.5432258 73.516129,41.2903226 L77.3858065,41.2903226 C76.7174194,60.8980645 60.8980645,76.7174194 41.2903226,77.3870968 Z" id="Shape"></path>
                                <path d="M45.1612903,27.0967742 L34.8387097,27.0967742 C29.1470968,27.0967742 24.516129,31.7277419 24.516129,37.4193548 C24.516129,45.9574194 31.4619355,52.9032258 40,52.9032258 C48.5380645,52.9032258 55.483871,45.9574194 55.483871,37.4193548 C55.483871,31.7277419 50.8529032,27.0967742 45.1612903,27.0967742 Z M40,50.3225806 C32.8851613,50.3225806 27.0967742,44.5341935 27.0967742,37.4193548 C27.0967742,33.1496774 30.5690323,29.6774194 34.8387097,29.6774194 L45.1612903,29.6774194 C49.4309677,29.6774194 52.9032258,33.1496774 52.9032258,37.4193548 C52.9032258,44.5341935 47.1148387,50.3225806 40,50.3225806 Z" id="Shape"></path>
                                <path d="M40,33.5483871 C36.4425806,33.5483871 33.5483871,36.4425806 33.5483871,40 C33.5483871,43.5574194 36.4425806,46.4516129 40,46.4516129 C43.5574194,46.4516129 46.4516129,43.5574194 46.4516129,40 C46.4516129,36.4425806 43.5574194,33.5483871 40,33.5483871 Z M40,43.8709677 C37.8658065,43.8709677 36.1290323,42.1341935 36.1290323,40 C36.1290323,37.8658065 37.8658065,36.1290323 40,36.1290323 C42.1341935,36.1290323 43.8709677,37.8658065 43.8709677,40 C43.8709677,42.1341935 42.1341935,43.8709677 40,43.8709677 Z" id="Shape"></path>
                            </g>
                        </g>
                    </g>
                </g>
            </g>
        </g>
    </g>
</svg>